HIERARCHY
ROOT Hips
{
	OFFSET 0.00000 0.00000 0.00000
	CHANNELS 6 Xposition Yposition Zposition Zrotation Yrotation Xrotation 
	JOINT LHipJoint
	{
		OFFSET 0 0 0
		CHANNELS 3 Zrotation Yrotation Xrotation
		JOINT LeftHip
		{
			OFFSET 1.61024 -1.73873 0.75100
			CHANNELS 3 Zrotation Yrotation Xrotation
			JOINT LeftKnee
			{
				OFFSET 2.29819 -6.31424 0.00000
				CHANNELS 3 Zrotation Yrotation Xrotation
				JOINT LeftAnkle
				{
					OFFSET 2.76618 -7.60002 0.00000
					CHANNELS 3 Zrotation Yrotation Xrotation
					JOINT LeftToe
					{
						OFFSET 0.16838 -0.46263 2.02361
						CHANNELS 3 Zrotation Yrotation Xrotation
						End Site
						{
							OFFSET 0.00000 -0.00000 1.04662
						}
					}
				}
			}
		}
	}
	JOINT RHipJoint
	{
		OFFSET 0 0 0
		CHANNELS 3 Zrotation Yrotation Xrotation
		JOINT RightHip
		{
			OFFSET -1.46153 -1.73873 0.75100
			CHANNELS 3 Zrotation Yrotation Xrotation
			JOINT RightKnee
			{
				OFFSET -2.38373 -6.54924 0.00000
				CHANNELS 3 Zrotation Yrotation Xrotation
				JOINT RightAnkle
				{
					OFFSET -2.80314 -7.70157 0.00000
					CHANNELS 3 Zrotation Yrotation Xrotation
					JOINT RightToe
					{
						OFFSET -0.16142 -0.44349 2.02101
						CHANNELS 3 Zrotation Yrotation Xrotation
						End Site
						{
							OFFSET -0.00000 -0.00000 1.04381
						}
					}
				}
			}
		}
	}
	JOINT lowerback
	{
		OFFSET 0 0 0
		CHANNELS 3 Zrotation Yrotation Xrotation
		JOINT Chest
		{
			OFFSET -0.01629 1.66985 0.14750
			CHANNELS 3 Zrotation Yrotation Xrotation
			JOINT Chest2
			{
				OFFSET 0.02086 1.62378 0.20980
				CHANNELS 3 Zrotation Yrotation Xrotation
				JOINT lowerneck
				{
					OFFSET 0 0 0
					CHANNELS 3 Zrotation Yrotation Xrotation
					JOINT Neck
					{
						OFFSET -0.05690 1.78719 0.08702
						CHANNELS 3 Zrotation Yrotation Xrotation
						JOINT Head
						{
							OFFSET 0.16035 1.73871 -0.38470
							CHANNELS 3 Zrotation Yrotation Xrotation
							End Site
							{
								OFFSET 0.05645 1.80914 -0.14081
							}
						}
					}
				}
				JOINT LeftCollar
				{
					OFFSET 0 0 0
					CHANNELS 3 Zrotation Yrotation Xrotation
					JOINT LeftShoulder
					{
						OFFSET 2.83089 1.66494 -0.46008
CHANNELS 3 Zrotation Xrotation Yrotation
						JOINT LeftElbow
						{
OFFSET 0 -5.548930 -0.000000
CHANNELS 3 Zrotation Xrotation Yrotation
							JOINT LeftWrist
							{
OFFSET 0 -3.028980 -0.000000
CHANNELS 3 Zrotation Xrotation Yrotation
								JOINT lhand
								{
									OFFSET 0 0 0
CHANNELS 3 Zrotation Xrotation Yrotation
									JOINT LFingers
									{
OFFSET 0 -0.640950 -0.000000
CHANNELS 3 Zrotation Xrotation Yrotation
										End Site
										{
OFFSET 0 -0.516750 -0.000000
										}
									}
								}
								JOINT LThumb
								{
OFFSET 0 0.000000 0.000000
CHANNELS 3 Zrotation Xrotation Yrotation
									End Site
									{
OFFSET 0 -0.524640 0.524640
									}
								}
							}
						}
					}
				}
				JOINT RightCollar
				{
					OFFSET 0 0 0
					CHANNELS 3 Zrotation Yrotation Xrotation
					JOINT RightShoulder
					{
						OFFSET -2.84442 1.45761 -0.18088
CHANNELS 3 Zrotation Xrotation Yrotation
						JOINT RightElbow
						{
OFFSET 0 -5.351900 -0.000000
CHANNELS 3 Zrotation Xrotation Yrotation
							JOINT RightWrist
							{
OFFSET 0 -3.025310 -0.000000
CHANNELS 3 Zrotation Xrotation Yrotation
								JOINT rhand
								{
									OFFSET 0 0 0
CHANNELS 3 Zrotation Xrotation Yrotation
									JOINT RFingers
									{
OFFSET 0 -0.783890 -0.000000
CHANNELS 3 Zrotation Xrotation Yrotation
										End Site
										{
OFFSET 0 -0.631990 -0.000000
										}
									}
								}
								JOINT RThumb
								{
OFFSET 0 0.000000 0.000000
CHANNELS 3 Zrotation Xrotation Yrotation
									End Site
									{
OFFSET 0 -0.641640 0.641640
									}
								}
							}
						}
					}
				}
			}
		}
	}
}
MOTION
Frames: 7
Frame Time: 0.008333333333333333
0.817223 17.771715 0.728805 175.177242 86.960763 -172.514968 0.000000 0.000000 0.000000 -16.738852 -22.102418 6.262471 0.000000 0.000000 0.000000 -0.947842 19.928408 -18.768487 0.594784 -4.937302 -13.729851 0.000000 0.000000 0.000000 19.566772 12.222030 -5.431484 -0.651892 -5.164614 14.378602 -0.134397 -15.838521 -23.751604 -0.424351 4.180896 -11.586169 -0.771341 -1.297699 -11.418625 0.205234 -1.246205 -8.056515 0.522305 -0.415401 -1.990858 -5.828889 -3.266430 -13.525631 8.779214 -5.124849 27.603814 3.597191 -1.601461 11.615866 0.000000 0.000000 0.000000 62.093664 -2.317353 -62.565047 138.626536 -48.862877 100.532546 -19.139971 -43.492449 -15.253876 0.000000 0.000000 0.000000 -7.125000 0.000000 0.000000 -40.153289 41.498362 -4.268317 0.000000 0.000000 0.000000 -51.010165 -2.124959 66.639461 -129.561009 -53.171015 -93.474824 -1.162978 -1.536747 -32.733992 0.000000 0.000000 0.000000 7.125000 0.000000 0.000000 17.160854 -1.503460 18.444047
0.794437 17.772924 0.736962 178.891967 86.919110 -168.936654 0.000000 0.000000 0.000000 -16.501395 -22.101264 6.308124 0.000000 0.000000 0.000000 -0.945004 19.937060 -18.829727 0.577262 -4.865092 -13.524165 0.000000 0.000000 0.000000 19.841496 12.228977 -5.304951 -0.644145 -5.134319 14.291903 -0.124706 -15.871246 -23.705335 -0.405806 4.089551 -11.328854 -0.680121 -1.381720 -11.192137 0.306413 -1.369261 -8.083563 0.568561 -0.478642 -2.139753 -5.652917 -3.212148 -13.617573 8.502264 -5.017338 27.728610 3.480279 -1.564942 11.660016 0.000000 0.000000 0.000000 60.771389 -3.848603 -64.678070 138.069031 -49.173149 100.111688 -18.659606 -41.747217 -14.945207 0.000000 0.000000 0.000000 -7.125000 0.000000 0.000000 -39.644614 41.304520 -4.425190 0.000000 0.000000 0.000000 -50.075456 -3.990843 69.026539 -129.672430 -53.126780 -93.563970 -1.649588 -1.590407 -32.202264 0.000000 0.000000 0.000000 7.125000 0.000000 0.000000 16.887985 -1.036891 17.985098
0.781966 17.773804 0.741287 179.755669 86.933938 -168.157045 0.000000 0.000000 0.000000 -16.455342 -22.065712 6.350946 0.000000 0.000000 0.000000 -0.970758 20.010631 -18.636666 0.606006 -4.982345 -13.858331 0.000000 0.000000 0.000000 19.925309 12.196135 -5.215083 -0.637221 -5.107321 14.214894 -0.102145 -15.936572 -23.584177 -0.417084 4.145331 -11.485840 -0.643838 -1.454477 -11.265793 0.359160 -1.470946 -8.033190 0.591705 -0.531727 -2.044817 -5.650741 -3.178347 -13.718365 8.415928 -4.946578 27.734119 3.456578 -1.543768 11.673791 0.000000 0.000000 0.000000 60.245624 -5.339160 -65.702541 137.289919 -49.595950 99.520257 -18.428880 -40.662373 -14.683666 0.000000 0.000000 0.000000 -7.125000 0.000000 0.000000 -39.341652 41.117219 -4.602098 0.000000 0.000000 0.000000 -49.615266 -5.776637 70.527571 -129.803825 -53.074305 -93.669048 -1.351945 -2.072890 -31.971403 0.000000 0.000000 0.000000 7.125000 0.000000 0.000000 17.047452 -0.791187 18.097362
0.784058 17.776192 0.740570 178.932806 87.227330 -168.797970 0.000000 0.000000 0.000000 -16.474685 -21.836629 6.115950 0.000000 0.000000 0.000000 -0.949387 19.956818 -18.814138 0.557815 -4.784065 -13.293585 0.000000 0.000000 0.000000 19.773008 12.281618 -5.486205 -0.643435 -5.131742 14.284661 -0.112080 -15.734481 -23.407401 -0.421882 4.168940 -11.552403 -0.627794 -1.387478 -11.698003 0.339169 -1.367923 -8.107692 0.564704 -0.476168 -1.892858 -5.582750 -3.193227 -13.954494 8.307755 -4.958432 27.990974 3.409942 -1.544625 11.818889 0.000000 0.000000 0.000000 60.202794 -6.637711 -66.500119 136.560612 -49.980654 98.963345 -18.085548 -40.140897 -14.277004 0.000000 0.000000 0.000000 -7.125000 0.000000 0.000000 -38.884859 40.822613 -4.875312 0.000000 0.000000 0.000000 -49.531228 -7.021333 71.463992 -129.982505 -53.002581 -93.811845 -1.402694 -2.438369 -31.596069 0.000000 0.000000 0.000000 7.125000 0.000000 0.000000 17.015427 -0.436889 17.952968
0.774445 17.777754 0.743854 177.973521 87.359981 -169.783332 0.000000 0.000000 0.000000 -16.515280 -21.719278 6.081574 0.000000 0.000000 0.000000 -0.955298 19.954922 -18.725732 0.557742 -4.783629 -13.292374 0.000000 0.000000 0.000000 19.718164 12.327864 -5.501915 -0.645215 -5.138574 14.304231 -0.108801 -15.708991 -23.343241 -0.421754 4.168262 -11.550539 -0.697140 -1.474010 -11.736031 0.398552 -1.468381 -8.212524 0.655508 -0.518482 -1.978488 -5.512160 -3.057996 -13.724452 8.246333 -4.764815 27.791501 3.395777 -1.467588 11.672475 0.000000 0.000000 0.000000 60.453739 -7.526408 -67.083964 136.234698 -50.149051 98.713423 -17.539783 -39.817756 -14.484967 0.000000 0.000000 0.000000 -7.125000 0.000000 0.000000 -38.595804 41.060788 -4.542153 0.000000 0.000000 0.000000 -49.781269 -8.212639 72.093786 -129.941342 -53.019119 -93.778978 -1.454951 -2.487394 -31.933973 0.000000 0.000000 0.000000 7.125000 0.000000 0.000000 16.990662 -0.764013 18.023145
0.771414 17.780124 0.742455 176.212454 87.486037 -171.563376 0.000000 0.000000 0.000000 -16.620191 -21.604505 6.076873 0.000000 0.000000 0.000000 -0.924308 19.840956 -18.895819 0.526214 -4.648801 -12.909592 0.000000 0.000000 0.000000 19.612231 12.360807 -5.472833 -0.643779 -5.132938 14.288114 -0.098587 -15.714419 -23.254505 -0.451889 4.312497 -11.957426 -0.695654 -1.506987 -11.948596 0.390987 -1.504588 -8.248539 0.639565 -0.534715 -1.901946 -5.405920 -3.002580 -13.710535 8.184221 -4.696297 27.788903 3.363266 -1.433698 11.658046 0.000000 0.000000 0.000000 60.925914 -8.528539 -67.603770 135.922896 -50.308243 98.473818 -17.580699 -39.621402 -14.656782 0.000000 0.000000 0.000000 -7.125000 0.000000 0.000000 -38.713521 41.198240 -4.399796 0.000000 0.000000 0.000000 -50.140057 -9.679431 72.634614 -129.728280 -53.104458 -93.608764 -1.339451 -3.287122 -31.446222 0.000000 0.000000 0.000000 7.125000 0.000000 0.000000 17.048674 -0.288480 17.946212
0.766765 17.780399 0.739065 176.447097 87.648611 -171.371285 0.000000 0.000000 0.000000 -16.653190 -21.436348 6.077811 0.000000 0.000000 0.000000 -0.951176 19.935346 -18.736966 0.543535 -4.721660 -13.116666 0.000000 0.000000 0.000000 19.588675 12.283884 -5.516557 -0.646101 -5.142002 14.313973 -0.097856 -15.596440 -23.089719 -0.483287 4.457593 -12.367797 -0.654150 -1.540439 -12.029380 0.454433 -1.545742 -8.320923 0.677123 -0.552504 -1.933869 -5.422085 -2.955756 -13.757215 8.172899 -4.623685 27.801350 3.372255 -1.404081 11.666177 0.000000 0.000000 0.000000 61.190639 -9.464188 -68.195795 135.505718 -50.518224 98.152327 -16.821980 -39.398072 -14.855146 0.000000 0.000000 0.000000 -7.125000 0.000000 0.000000 -38.259366 41.454044 -4.029650 0.000000 0.000000 0.000000 -50.578623 -10.814231 72.971536 -129.311048 -53.269573 -93.274652 -1.206778 -3.778143 -31.222950 0.000000 0.000000 0.000000 7.125000 0.000000 0.000000 17.119920 -0.064434 17.959820
